<?xml version="1.0" encoding="UTF-8"?>
<svg version="1.1" xmlns="http://www.w3.org/2000/svg" width="500" height="500">
<path d="M0 0 C3.48348332 3.09585841 6.88814865 6.26835451 10.26367188 9.48193359 C10.98941406 10.16642578 11.71515625 10.85091797 12.46289062 11.55615234 C17.01118043 15.96147036 21.02526709 20.70242232 24.98242188 25.64208984 C26.45959821 27.48097203 27.95846727 29.30272182 29.48242188 31.10302734 C39.66469924 43.1675919 47.69356517 56.40816229 55.10400391 70.30908203 C55.84019734 71.68847604 56.58264775 73.06456318 57.33349609 74.43603516 C71.09780373 99.61898576 78.62880856 128.14004195 82.26367188 156.48193359 C82.35100082 157.15421494 82.43832977 157.82649628 82.52830505 158.51914978 C83.20246718 164.08566763 83.43753955 169.57292892 83.46679688 175.17724609 C83.47385651 176.07911148 83.48091614 176.98097687 83.4881897 177.91017151 C83.7173347 215.78767841 83.7173347 215.78767841 80.26367188 232.48193359 C80.06499512 233.4596875 79.86631836 234.43744141 79.66162109 235.44482422 C72.89745703 267.77094164 61.15933972 299.20455999 42.26367188 326.48193359 C41.85165527 327.08489258 41.43963867 327.68785156 41.01513672 328.30908203 C28.67416623 346.29665101 14.03652341 364.20448524 -3.04882812 377.91943359 C-3.99886719 378.68255859 -4.94890625 379.44568359 -5.92773438 380.23193359 C-6.85457031 380.97443359 -7.78140625 381.71693359 -8.73632812 382.48193359 C-9.52910156 383.14193359 -10.321875 383.80193359 -11.13867188 384.48193359 C-18.2999637 390.39208458 -25.89619441 395.52661853 -33.73632812 400.48193359 C-34.43338867 400.9244043 -35.13044922 401.366875 -35.84863281 401.82275391 C-74.98144432 426.3492833 -120.93680797 437.98298356 -166.86132812 437.79443359 C-167.80820496 437.79227844 -168.75508179 437.79012329 -169.73065186 437.78790283 C-183.9137687 437.73615164 -197.80032482 437.35623427 -211.73632812 434.48193359 C-213.2290625 434.17594238 -213.2290625 434.17594238 -214.75195312 433.86376953 C-235.92582771 429.38518214 -256.25414234 422.93158082 -275.73632812 413.48193359 C-276.49091309 413.1176123 -277.24549805 412.75329102 -278.02294922 412.37792969 C-336.34992441 383.84696246 -382.0620557 332.1527888 -403.66064453 270.95678711 C-411.4009855 248.14658412 -416.75081749 224.06303597 -416.97460938 199.89990234 C-416.98444855 199.01590256 -416.99428772 198.13190277 -417.00442505 197.22111511 C-417.3795686 154.71530516 -411.0033882 114.78380857 -391.73632812 76.48193359 C-391.35573242 75.72348145 -390.97513672 74.9650293 -390.58300781 74.18359375 C-378.37262856 50.0295433 -362.32930642 29.09379645 -343.73632812 9.48193359 C-342.66898438 8.35078125 -342.66898438 8.35078125 -341.58007812 7.19677734 C-336.35305336 1.80908583 -330.61957115 -2.86728141 -324.73632812 -7.51806641 C-323.74761719 -8.31212891 -322.75890625 -9.10619141 -321.74023438 -9.92431641 C-293.37732063 -32.30304486 -260.68119721 -47.63223692 -225.73632812 -56.51806641 C-224.54394531 -56.82357422 -223.3515625 -57.12908203 -222.12304688 -57.44384766 C-218.6732563 -58.24948737 -215.22563613 -58.90552331 -211.73632812 -59.51806641 C-211.03169434 -59.65341797 -210.32706055 -59.78876953 -209.60107422 -59.92822266 C-134.78378058 -73.90041125 -56.65908057 -49.53686206 0 0 Z " fill="#D3A900" transform="translate(416.736328125,62.51806640625)"/>
<path d="M0 0 C0 0.66 0 1.32 0 2 C-1.50390625 3.48046875 -1.50390625 3.48046875 -3.5625 5.1875 C-12.788669 13.06784822 -20.34537403 21.83362019 -27 32 C-28.11117187 31.59007812 -29.22234375 31.18015625 -30.3671875 30.7578125 C-53.24256674 22.41466337 -75.94379577 20.66781302 -98.75390625 31.0546875 C-120.96042886 41.97644047 -135.90752266 59.73412764 -144 83 C-150.67441983 103.21165038 -147.54743832 125.54326579 -138.3125 144.4375 C-127.5296039 165.1403514 -110.17215919 179.62789669 -88 187 C-65.31135755 193.43796719 -42.57709763 190.2727158 -22 179 C-1.637521 166.64271508 11.85156605 147.99861711 17.54638672 124.77148438 C18.88807257 118.52832754 19.2633432 112.55754839 19.375 106.1875 C20.01375706 87.74050397 26.74508619 70.85500284 39.94921875 57.72265625 C48.23073668 50.03829792 58.36463861 44.65254835 69 41 C69.69738281 40.75507813 70.39476562 40.51015625 71.11328125 40.2578125 C87.54872269 35.59844464 106.62800428 39.4289888 121.328125 47.375 C125.53184265 49.93164699 129.3113341 52.74726734 133 56 C133.75023437 56.65613281 134.50046875 57.31226563 135.2734375 57.98828125 C147.39966059 69.30746902 155.442073 85.32267134 156.23828125 101.99609375 C156.73232241 121.67798469 151.07528054 139.17990105 137.85546875 154.1796875 C124.21213734 168.17408101 106.57689313 175.05222762 87.25 175.375 C77.19696389 175.39368247 67.98420989 173.79445816 59 169 C60.23983637 165.15650726 61.61962577 161.39863365 63.10693359 157.64453125 C66.65617483 148.60107361 69.00212462 139.49578414 71 130 C71.54785156 130.2165625 72.09570312 130.433125 72.66015625 130.65625 C81.18071025 133.64883482 91.88209968 135.24115339 100.4375 131.5625 C106.9886032 127.53435996 112.12584088 121.45988825 114 114 C114.76831621 105.79867111 115.20198271 97.78446289 110 91 C107.60416349 88.18668622 107.60416349 88.18668622 105 86 C104.13375 85.195625 104.13375 85.195625 103.25 84.375 C96.83335595 80.45371753 89.44167557 78.68931187 82 80 C72.2127143 83.37791276 66.9731591 88.13965267 62.37890625 97.1953125 C60.6201334 101.41131823 60.56397608 105.42023268 60.5 109.9375 C60.19876353 118.88056658 58.97115311 127.28291029 57 136 C56.79632813 136.93714844 56.59265625 137.87429688 56.3828125 138.83984375 C48.90384628 169.54053842 28.16735182 195.85967932 2 213 C-3.13406183 216.10629117 -8.48958857 218.63929972 -14 221 C-14.73589355 221.31839844 -15.47178711 221.63679687 -16.22998047 221.96484375 C-45.03085041 234.15853831 -78.80933979 235.05932583 -108.07617188 223.79052734 C-124.33282297 217.1104466 -137.98912 207.69734345 -151 196 C-151.67933594 195.40574219 -152.35867187 194.81148437 -153.05859375 194.19921875 C-174.27317587 174.51086556 -187.12827757 142.53351251 -188.34765625 114.109375 C-189.17002762 84.01946309 -182.18283854 57.26904918 -164 33 C-163.32066406 32.07960937 -162.64132813 31.15921875 -161.94140625 30.2109375 C-142.22557575 4.58432482 -115.07930497 -9.57599859 -84 -16 C-83.03449219 -16.20496094 -82.06898438 -16.40992187 -81.07421875 -16.62109375 C-55.09851637 -19.82267333 -21.91642096 -15.452789 0 0 Z " fill="#010100" transform="translate(238,143)"/>
<path d="M0 0 C23.33764282 20.35220367 39.14454109 50.94481763 41.39746094 81.90429688 C41.44290039 82.62552734 41.48833984 83.34675781 41.53515625 84.08984375 C41.6110498 85.25676758 41.6110498 85.25676758 41.68847656 86.44726562 C43.62264014 121.65182578 30.42092777 152.79744201 7.59765625 178.83984375 C-14.24545981 202.27957949 -45.64002004 216.18831162 -77.56640625 217.375 C-102.2011108 217.89966093 -122.72443147 212.56320559 -144.46484375 201.08984375 C-145.12484375 200.75984375 -145.78484375 200.42984375 -146.46484375 200.08984375 C-146.46484375 199.42984375 -146.46484375 198.76984375 -146.46484375 198.08984375 C-144.9609375 196.609375 -144.9609375 196.609375 -142.90234375 194.90234375 C-136.02951847 189.01650914 -130.3436785 182.8569698 -124.92822266 175.62060547 C-122.91542171 172.93447183 -120.93710065 170.36945726 -118.46484375 168.08984375 C-117.94277344 168.34378906 -117.42070312 168.59773437 -116.8828125 168.859375 C-108.12728079 172.95346776 -99.13891184 175.58459288 -89.46484375 176.08984375 C-88.38847656 176.15429688 -87.31210937 176.21875 -86.203125 176.28515625 C-64.59239272 176.97412752 -45.01741913 169.79662936 -28.46484375 156.08984375 C-27.57925781 155.43048828 -27.57925781 155.43048828 -26.67578125 154.7578125 C-12.27130774 143.85817078 -2.95503826 123.71921083 -0.46484375 106.08984375 C1.0585119 80.94502022 -2.45112489 58.53409388 -19.46484375 39.08984375 C-19.98304688 38.42984375 -20.50125 37.76984375 -21.03515625 37.08984375 C-34.2584369 20.73641454 -55.03342382 12.4922195 -75.46484375 10.08984375 C-99.83549558 8.56355036 -121.02074758 16.1560472 -139.46484375 32.08984375 C-140.13773438 32.65058594 -140.810625 33.21132812 -141.50390625 33.7890625 C-156.01878646 46.94524387 -164.71773712 68.95844826 -165.7109375 88.140625 C-165.77499814 89.56118628 -165.83879299 90.98175957 -165.90234375 92.40234375 C-166.97805429 112.12935046 -173.74567253 130.32741866 -188.46484375 144.08984375 C-204.80823531 157.29196515 -222.5943823 162.73607139 -243.46484375 161.08984375 C-260.9013178 158.82452035 -276.33981702 149.72051324 -287.71484375 136.40234375 C-294.27093044 127.74615536 -299.0053216 117.66578901 -301.46484375 107.08984375 C-301.64660156 106.34476563 -301.82835937 105.5996875 -302.015625 104.83203125 C-305.14516143 85.72825236 -300.36067944 67.93748337 -289.43359375 52.15625 C-278.8164189 38.28852706 -261.96760498 27.43044969 -244.46484375 25.08984375 C-231.550008 23.83009432 -219.69202153 25.85143129 -207.46484375 30.08984375 C-206.80484375 30.74984375 -206.14484375 31.40984375 -205.46484375 32.08984375 C-205.92375 33.14300781 -206.38265625 34.19617188 -206.85546875 35.28125 C-210.454493 43.68878252 -213.47478296 51.93153995 -215.640625 60.8203125 C-216.43577359 63.97452753 -217.39751371 67.01835686 -218.46484375 70.08984375 C-219.13128906 69.80109375 -219.79773438 69.51234375 -220.484375 69.21484375 C-228.45616824 66.00382773 -235.28121732 64.32766802 -243.61328125 67.16015625 C-251.453752 70.70288748 -256.39062692 74.88269524 -259.58984375 82.9140625 C-261.80530881 90.95501382 -261.59081177 99.82156224 -257.6640625 107.26171875 C-254.03639913 112.7918375 -248.74231393 116.99735369 -242.46484375 119.08984375 C-229.80656291 120.00744042 -229.80656291 120.00744042 -218.46484375 115.08984375 C-217.13453125 114.28546875 -217.13453125 114.28546875 -215.77734375 113.46484375 C-210.03494686 107.56724695 -207.53632036 99.8874445 -207.0703125 91.828125 C-204.74359915 55.57798785 -192.35704108 24.39141473 -165.08447266 -0.51074219 C-160.18789564 -4.74155006 -154.85330162 -8.34351032 -149.46484375 -11.91015625 C-148.67078125 -12.461875 -147.87671875 -13.01359375 -147.05859375 -13.58203125 C-101.52215544 -43.40519155 -39.95049269 -33.85999536 0 0 Z " fill="#010100" transform="translate(408.46484375,156.91015625)"/>
</svg>
